<svg xmlns="http://www.w3.org/2000/svg" xmlns:xlink="http://www.w3.org/1999/xlink" version="1.1" viewBox="401 746 19.54 10.37" width="256" height="136">
<g clip-path="url(#clip_8)">
<path fill="#A8171C" transform="matrix(1,0,0,-1,403.8018,748.737)" d="M0 0H-.032C-.043 0-.142 .101-.236 .189-.324 .273-.45 .431-.503 .639-.562 .87-.506 1.041-.434 1.231-.35 1.453-.201 1.726-.318 2.078-.321 2.091-.303 2.09-.286 2.086-.278 2.089-.196 1.999-.082 1.867 .055 1.708 .218 1.542 .221 1.298 .209 .813 .027 .715-.053 .385-.073 .282 0 0 0 0"/>
<path transform="matrix(1,0,0,-1,0,792)" d="M420.543 35.631H401V38.436H420.543Z"/>
<path transform="matrix(1,0,0,-1,403.6515,748.7373)" d="M0 0C-.532 0-1.052 .415-1.062 1.072-1.07 1.595-.611 2.092-.004 2.092 .563 2.092 1.024 1.61 1.03 1.063 1.037 .44 .532 0 0 0M9.353-.462C9.597-.462 16.891-.463 16.891-.463V2.74H-2.651V-.463C-2.651-.463 4.831-.461 4.883-.462 4.883-.462 6.769-.541 6.769-2.376 6.769-4.208 4.883-4.294 4.883-4.294V-4.486L9.354-4.487 9.355-4.292C9.355-4.292 7.47-4.211 7.47-2.376 7.47-.541 9.353-.462 9.353-.462"/>
</g>
</svg>